<svg xmlns="http://www.w3.org/2000/svg" viewBox="0 0 96 96">
  <rect width="96" height="96" rx="20" fill="#ffd9a8"/>
  <g fill="none" stroke="#166a86" stroke-width="3.5" stroke-linecap="round" stroke-linejoin="round">
    <!-- head -->
    <rect x="33" y="13" width="30" height="41" rx="14"/>
    <!-- big open smile -->
    <path d="M41.5 40q6.5 7 13 0"/>
    <!-- neck into left shoulder -->
    <path d="M39 54v4C39 63 22 66 14 84"/>
    <!-- right shoulder into raised waving arm -->
    <path d="M57 54v4c0 4 10 4 14 0"/>
    <path d="M71 58C78 52 80 42 76 32"/>
    <!-- waving hand -->
    <path d="M76 32l-3-5M76 32l1-6M76 32l5-4"/>
    <!-- wave motion ticks -->
    <path d="M85 26l4-3M87 34h5"/>
    <!-- chest line -->
    <path d="M33 73v12"/>
  </g>
  <!-- neon glasses -->
  <g fill="rgba(255,255,255,0.25)" stroke="#f1338f" stroke-width="3" stroke-linecap="round" stroke-linejoin="round">
    <rect x="35.5" y="25" width="11.5" height="10" rx="4"/>
    <rect x="49" y="25" width="11.5" height="10" rx="4"/>
    <path fill="none" d="M47 29.5h2"/>
    <path fill="none" d="M35.5 29h-2.5"/>
    <path fill="none" d="M60.5 29h2.5"/>
  </g>
</svg>
